<svg width="24" height="24" viewBox="0 0 24 24" fill="none" xmlns="http://www.w3.org/2000/svg">
<g clip-path="url(#clip0_4020_11795)">
<path d="M7.9953 5.63817V21.3479C7.9953 21.7628 7.79473 22.1519 7.33873 22.1519C7.18497 22.1512 7.0335 22.1145 6.89645 22.0448L0.668452 18.9239C0.293023 18.7362 -0.000976586 18.2545 -0.000976562 17.8525V2.58417C-0.000976562 2.24903 0.159309 1.94131 0.521023 1.94131C0.735309 1.94131 0.923023 2.04846 1.11074 2.14189L7.95416 5.57046C7.97232 5.58953 7.98607 5.61235 7.99445 5.63732L7.9953 5.63817ZM8.85245 6.99074L16.0044 18.5887L8.85245 15.0265V6.99074V6.99074ZM23.9999 7.2316V21.3479C23.9999 21.7902 23.7453 22.0979 23.3039 22.0979C23.0759 22.0979 22.8616 22.031 22.6747 21.9239L16.7682 18.9779L23.9999 7.2316ZM23.9596 5.62532C23.9596 5.67932 17.0356 16.9156 16.4999 17.7727L11.2764 9.28189L15.6162 2.22417C15.6903 2.10722 15.7932 2.01127 15.9151 1.94553C16.037 1.87979 16.1737 1.84646 16.3122 1.84874C16.433 1.84874 16.553 1.87531 16.6602 1.92931L23.9056 5.5456C23.9322 5.55932 23.9596 5.58589 23.9596 5.62617V5.62532Z" fill="#718191"/>
</g>
<defs>
<clipPath id="clip0_4020_11795">
<rect width="24" height="24" fill="white"/>
</clipPath>
</defs>
</svg>
