<svg width="24" height="24" viewBox="0 0 24 24" fill="none" xmlns="http://www.w3.org/2000/svg">
<path d="M24 4.304C23.108 4.694 22.157 4.954 21.165 5.079C22.1947 4.47002 22.9651 3.50429 23.33 2.365C22.3653 2.93608 21.3101 3.3382 20.21 3.554C19.7484 3.06323 19.1912 2.67217 18.5728 2.4049C17.9544 2.13764 17.2877 1.99985 16.614 2C15.3112 2 14.0618 2.51731 13.1403 3.43822C12.2189 4.35912 11.7008 5.60825 11.7 6.911C11.7 7.301 11.733 7.675 11.814 8.031C7.721 7.83 4.103 5.875 1.67 2.895C1.23026 3.64832 0.998042 4.50473 0.997 5.377C0.997 7.077 1.874 8.585 3.182 9.457C2.40368 9.4363 1.64169 9.22917 0.96 8.853V8.907C0.96 11.293 2.666 13.274 4.902 13.731C4.502 13.841 4.065 13.893 3.612 13.893C3.297 13.893 2.979 13.875 2.68 13.809C3.318 15.753 5.127 17.183 7.278 17.229C5.5354 18.5883 3.38807 19.3254 1.178 19.323C0.774 19.323 0.387 19.305 0 19.256C2.25089 20.7029 4.87219 21.468 7.548 21.459C16.602 21.459 21.552 13.975 21.552 7.488C21.5514 7.27621 21.5454 7.06448 21.534 6.853C22.5042 6.16002 23.3399 5.29588 24 4.303V4.304Z" fill="#718191"/>
</svg>
